<mxfile host="Electron" agent="Mozilla/5.0 (Windows NT 10.0; Win64; x64) AppleWebKit/537.36 (KHTML, like Gecko) draw.io/25.0.2 Chrome/128.0.6613.186 Electron/32.2.5 Safari/537.36" version="25.0.2" pages="2">
  <diagram name="Context" id="qE9CWPSvquBYpIG2fDMB">
    <mxGraphModel dx="1100" dy="894" grid="1" gridSize="10" guides="1" tooltips="1" connect="1" arrows="1" fold="1" page="1" pageScale="1" pageWidth="850" pageHeight="1100" math="0" shadow="0">
      <root>
        <mxCell id="0" />
        <mxCell id="1" parent="0" />
        <mxCell id="mZcxx05x0MHAvOTnUk9M-3" value="Orleans Parish Online Personal Property Reporting (OPOPPR)" style="ellipse;whiteSpace=wrap;html=1;aspect=fixed;fillColor=#dae8fc;gradientColor=#7ea6e0;strokeColor=#6c8ebf;fontColor=#000000;" parent="1" vertex="1">
          <mxGeometry x="400" y="190" width="140" height="140" as="geometry" />
        </mxCell>
        <mxCell id="mZcxx05x0MHAvOTnUk9M-8" style="rounded=0;orthogonalLoop=1;jettySize=auto;html=1;entryX=0;entryY=0;entryDx=0;entryDy=0;edgeStyle=orthogonalEdgeStyle;curved=1;endArrow=none;endFill=0;" parent="1" source="mZcxx05x0MHAvOTnUk9M-6" target="mZcxx05x0MHAvOTnUk9M-3" edge="1">
          <mxGeometry relative="1" as="geometry" />
        </mxCell>
        <mxCell id="mZcxx05x0MHAvOTnUk9M-6" value="Tax Preparers" style="shape=umlActor;verticalLabelPosition=bottom;verticalAlign=top;html=1;outlineConnect=0;" parent="1" vertex="1">
          <mxGeometry x="230" y="140" width="30" height="60" as="geometry" />
        </mxCell>
        <mxCell id="mZcxx05x0MHAvOTnUk9M-9" style="edgeStyle=orthogonalEdgeStyle;rounded=0;orthogonalLoop=1;jettySize=auto;html=1;entryX=0;entryY=1;entryDx=0;entryDy=0;endArrow=none;endFill=0;curved=1;" parent="1" source="mZcxx05x0MHAvOTnUk9M-7" target="mZcxx05x0MHAvOTnUk9M-3" edge="1">
          <mxGeometry relative="1" as="geometry" />
        </mxCell>
        <mxCell id="mZcxx05x0MHAvOTnUk9M-13" style="edgeStyle=orthogonalEdgeStyle;rounded=0;orthogonalLoop=1;jettySize=auto;html=1;entryX=0;entryY=0.5;entryDx=0;entryDy=0;endArrow=none;endFill=0;curved=1;" parent="1" source="mZcxx05x0MHAvOTnUk9M-7" target="mZcxx05x0MHAvOTnUk9M-12" edge="1">
          <mxGeometry relative="1" as="geometry" />
        </mxCell>
        <mxCell id="mZcxx05x0MHAvOTnUk9M-7" value="Administrators" style="shape=umlActor;verticalLabelPosition=bottom;verticalAlign=top;html=1;outlineConnect=0;" parent="1" vertex="1">
          <mxGeometry x="230" y="330" width="30" height="60" as="geometry" />
        </mxCell>
        <mxCell id="mZcxx05x0MHAvOTnUk9M-12" value="Orleans Parish Tax Reporting System" style="ellipse;whiteSpace=wrap;html=1;aspect=fixed;fillColor=#d5e8d4;gradientColor=#97d077;strokeColor=#82b366;fontColor=#000000;" parent="1" vertex="1">
          <mxGeometry x="400" y="370" width="140" height="140" as="geometry" />
        </mxCell>
      </root>
    </mxGraphModel>
  </diagram>
  <diagram id="5j-gIfpBqcW349pAsJ7n" name="Tiers">
    <mxGraphModel dx="1100" dy="894" grid="1" gridSize="10" guides="1" tooltips="1" connect="1" arrows="1" fold="1" page="1" pageScale="1" pageWidth="850" pageHeight="1100" math="0" shadow="0">
      <root>
        <mxCell id="0" />
        <mxCell id="1" parent="0" />
        <mxCell id="-jNtCa8vfcB5dv2YYLYq-8" value="&lt;font style=&quot;font-size: 18px;&quot;&gt;Presentation Layer&lt;/font&gt;&lt;div&gt;.xhtml files&lt;/div&gt;&lt;div&gt;Request Scoped JavaBeans&lt;/div&gt;" style="rounded=0;whiteSpace=wrap;html=1;fillColor=#d5e8d4;strokeColor=#82b366;gradientColor=#97d077;fontColor=#000000;" vertex="1" parent="1">
          <mxGeometry x="180" y="150" width="470" height="60" as="geometry" />
        </mxCell>
        <mxCell id="-jNtCa8vfcB5dv2YYLYq-10" value="&lt;font style=&quot;font-size: 18px;&quot;&gt;Application Layer&lt;/font&gt;&lt;div&gt;Session Scoped JavaBeans&lt;/div&gt;" style="rounded=0;whiteSpace=wrap;html=1;fillColor=#dae8fc;strokeColor=#6c8ebf;gradientColor=#7ea6e0;fontColor=#000000;" vertex="1" parent="1">
          <mxGeometry x="180" y="210" width="470" height="60" as="geometry" />
        </mxCell>
        <mxCell id="-jNtCa8vfcB5dv2YYLYq-11" value="&lt;font style=&quot;font-size: 18px;&quot;&gt;Data Layer&lt;/font&gt;&lt;div&gt;Controllers and Entity JavaBeans&lt;/div&gt;&lt;div&gt;Database&lt;/div&gt;" style="rounded=0;whiteSpace=wrap;html=1;fillColor=#e6d0de;strokeColor=#996185;gradientColor=#d5739d;fontColor=#000000;" vertex="1" parent="1">
          <mxGeometry x="180" y="270" width="470" height="60" as="geometry" />
        </mxCell>
      </root>
    </mxGraphModel>
  </diagram>
</mxfile>
